#N canvas 211 8 940 699 10;
#X declare -lib mrpeach;
#X obj 27 -137 import mrpeach;
#N canvas 152 361 1726 604 (subpatch) 0;
#X obj -751 42 print message;
#X obj -751 21 spigot;
#X obj 3 5 tgl 15 0 empty empty print_all_messages_to_concsole 17 7
0 10 -262144 -1 -1 0 1;
#X obj -654 39 spigot;
#X obj -467 102 spigot;
#N canvas 0 22 778 341 affectiv/messages 0;
#X obj 198 105 inlet;
#X obj 352 280 outlet;
#X obj 418 274 outlet;
#X obj 264 278 outlet;
#X obj 197 137 route /AFF/Engaged/Bored /AFF/Excitement /AFF/Excitement_Long_Term
/AFF/Meditation /AFF/Frustration;
#X obj 480 270 outlet;
#X obj 546 264 outlet;
#X connect 0 0 4 0;
#X connect 4 0 3 0;
#X connect 4 1 1 0;
#X connect 4 2 2 0;
#X connect 4 3 5 0;
#X connect 4 4 6 0;
#X restore -285 169 pd affectiv/messages;
#X obj -285 147 spigot;
#X obj -751 -74 dumpOSC 1200;
#X obj -110 215 spigot;
#X obj -110 240 route /mouse;
#X obj -110 262 unpack f f;
#X floatatom 267 256 5 0 0 2 x - -;
#X floatatom 306 256 5 0 0 2 y - -;
#X obj -761 131 outlet;
#X obj -751 141 outlet;
#X obj -741 151 outlet;
#X obj -731 161 outlet;
#X obj -721 171 outlet;
#X obj -711 181 outlet;
#X obj -701 191 outlet;
#X obj -691 201 outlet;
#X obj -681 211 outlet;
#X obj -671 221 outlet;
#X obj -661 231 outlet;
#X obj -651 241 outlet;
#X obj -641 251 outlet;
#X obj -631 261 outlet;
#X floatatom 4 71 5 0 0 2 winkL - -;
#N canvas 62 42 1182 306 expression/messages-------- 0;
#X obj 2 50 route /EXP/WINK_LEFT /EXP/WINK_RIGHT;
#X obj 173 -115 inlet;
#X obj 231 50 route /EXP/BLINK /EXP/LEFT_LID EXP/RIGHT_LID /EXP/HORIEYE
/EXP/VERTEYE;
#X obj 582 50 route /EXP/SMILE /EXP/CLENCH EXP/LAUGH /EXP/SMIRK_LEFT
/EXP/SMIRK_RIGHT;
#X obj 917 50 route /EXP/FURROW /EXP/EYEBROW;
#X obj 2 150 outlet;
#X obj 108 149 outlet;
#X obj 231 150 outlet;
#X obj 298 148 outlet;
#X obj 366 146 outlet;
#X obj 434 144 outlet;
#X obj 502 143 outlet;
#X obj 582 139 outlet;
#X obj 646 137 outlet;
#X obj 710 135 outlet;
#X obj 774 133 outlet;
#X obj 838 132 outlet;
#X obj 917 130 outlet;
#X obj 1005 128 outlet;
#X connect 0 0 5 0;
#X connect 0 1 6 0;
#X connect 1 0 0 0;
#X connect 1 0 2 0;
#X connect 1 0 3 0;
#X connect 1 0 4 0;
#X connect 2 0 7 0;
#X connect 2 1 8 0;
#X connect 2 2 9 0;
#X connect 2 3 10 0;
#X connect 2 4 11 0;
#X connect 3 0 12 0;
#X connect 3 1 13 0;
#X connect 3 2 14 0;
#X connect 3 3 15 0;
#X connect 3 4 16 0;
#X connect 4 0 17 0;
#X connect 4 1 18 0;
#X restore -654 59 pd expression/messages--------;
#X floatatom 39 71 5 0 0 2 winkR - -;
#X floatatom 80 71 5 0 0 2 blink - -;
#X floatatom 122 71 5 0 0 2 lidL - -;
#X floatatom 157 71 5 0 0 2 lidR - -;
#X floatatom 198 71 5 0 0 2 eyeH - -;
#X floatatom 233 71 5 0 0 2 eyeV - -;
#X floatatom 282 71 5 0 0 2 smile - -;
#X floatatom 318 71 5 0 0 2 clench - -;
#X floatatom 355 71 5 0 0 2 laugh - -;
#X floatatom 400 71 5 0 0 2 smirkL - -;
#X floatatom 436 71 5 0 0 2 smirkR - -;
#X floatatom 509 71 5 0 0 2 furrow - -;
#X floatatom 547 71 5 0 0 2 eyebrow - -;
#X obj -617 284 outlet;
#X obj -607 294 outlet;
#X obj -597 304 outlet;
#X obj -587 314 outlet;
#X obj -577 324 outlet;
#X obj -567 334 outlet;
#N canvas 108 22 1758 338 cognition/messages-------- 0;
#X obj 113 -66 inlet;
#X obj 114 50 route /COG/NEUTRAL;
#X obj 114 84 outlet;
#X obj 231 84 outlet;
#X obj 297 84 outlet;
#X obj 364 84 outlet;
#X obj 431 84 outlet;
#X obj 231 50 route /COG/PUSH /COG/PULL /COG/LIFT /COG/DROP;
#X obj 518 84 outlet;
#X obj 581 84 outlet;
#X obj 645 84 outlet;
#X obj 709 84 outlet;
#X obj 518 50 route /COG/LEFT /COG/RIGHT /COG/ROTATE_LEFT /COG/ROTATE_RIGHT
;
#X obj 787 84 outlet;
#X obj 850 84 outlet;
#X obj 1138 85 outlet;
#X obj 1204 85 outlet;
#X obj 1271 85 outlet;
#X obj 1138 51 route /COG/ROTATE_FORWARD /COG/ROTATE_BACKWARDS /COG/DISAPPEAR
;
#X obj 787 50 route /COG/ROTATE_CLOCKWISE /COG/ROTATE_COUNTER_CLOCKWISE
;
#X connect 0 0 1 0;
#X connect 0 0 7 0;
#X connect 0 0 12 0;
#X connect 0 0 18 0;
#X connect 0 0 19 0;
#X connect 1 0 2 0;
#X connect 7 0 3 0;
#X connect 7 1 4 0;
#X connect 7 2 5 0;
#X connect 7 3 6 0;
#X connect 12 0 8 0;
#X connect 12 1 9 0;
#X connect 12 2 10 0;
#X connect 12 3 11 0;
#X connect 18 0 15 0;
#X connect 18 1 16 0;
#X connect 18 2 17 0;
#X connect 19 0 13 0;
#X connect 19 1 14 0;
#X restore -467 121 pd cognition/messages--------;
#X obj -555 342 outlet;
#X obj -545 352 outlet;
#X obj -535 362 outlet;
#X obj -525 372 outlet;
#X obj -515 382 outlet;
#X obj -494 398 outlet;
#X obj -482 406 outlet;
#X obj -472 416 outlet;
#X obj -435 444 outlet;
#X floatatom 4 143 5 0 0 2 neutral - -;
#X floatatom 63 143 5 0 0 2 push - -;
#X floatatom 98 143 5 0 0 2 pull - -;
#X floatatom 132 143 5 0 0 2 lift - -;
#X floatatom 166 143 5 0 0 2 drop - -;
#X floatatom 200 143 5 0 0 2 left - -;
#X floatatom 234 143 5 0 0 2 right - -;
#X floatatom 354 143 5 0 0 2 clock - -;
#X floatatom 388 143 5 0 0 2 c_clock - -;
#X floatatom 432 143 5 0 0 2 fwd - -;
#X floatatom 466 143 5 0 0 2 bck - -;
#X obj 1 40 cnv 15 265 15 empty empty EYES 2 8 0 12 -257985 -66577
0;
#X obj 281 40 cnv 15 190 15 empty empty MOUTH 2 8 0 12 -260097 -66577
0;
#X obj 508 40 cnv 15 80 15 empty empty OTHERS 2 8 0 12 -258113 -66577
0;
#X obj 61 114 cnv 15 205 15 empty empty TRANSLATE 2 8 0 12 -257985
-66577 0;
#X obj 282 114 cnv 15 215 15 empty empty ROTATE 2 8 0 12 -260097 -66577
0;
#X floatatom 510 143 5 0 0 2 disappear - -;
#X obj 508 115 cnv 15 80 15 empty empty OTHERS 2 8 0 12 -258113 -66577
0;
#X floatatom 283 143 5 0 0 2 left - -;
#X floatatom 317 143 5 0 0 2 right - -;
#X floatatom 123 202 5 0 0 2 engagedVSbored - -;
#X floatatom 218 202 5 0 0 2 excitement - -;
#X floatatom 290 202 5 0 0 2 excitement_LT - -;
#X floatatom 378 202 5 0 0 2 meditation - -;
#X floatatom 446 202 5 0 0 2 frustration - -;
#X obj -425 454 outlet;
#X obj -415 464 outlet;
#X obj -405 474 outlet;
#X obj -395 484 outlet;
#X obj -117 469 outlet;
#X obj -107 479 outlet;
#X obj 1 24 cnv 15 588 15 empty empty EXPRESSION_PANNEL 2 8 0 12 -1
-262144 0;
#X obj 1 99 cnv 15 588 15 empty empty COGNITION_PANNEL 2 8 0 12 -1
-262144 0;
#X obj 133 24 tgl 15 0 empty empty on/off 17 7 0 10 -262144 -1 -262144
0 1;
#X obj 134 99 tgl 15 0 empty empty on/off 17 7 0 10 -262144 -1 -262144
0 1;
#X obj 1 171 cnv 15 588 15 empty empty AFFECTIVE_PANNEL 2 8 0 12 -1
-262144 0;
#X obj 135 171 tgl 15 0 empty empty on/off 17 7 0 10 -262144 -1 -262144
0 1;
#X obj 1 229 cnv 15 588 15 empty empty GYRO_PANNEL 2 8 0 12 -1 -262144
0;
#X obj 136 229 tgl 15 0 empty empty on/off 17 7 0 10 -262144 -1 -262144
0 1;
#X text 10 84 1;
#X text 47 85 2;
#X text 88 84 3;
#X text 130 84 4;
#X text 164 84 5;
#X text 206 85 6;
#X text 238 85 7;
#X text 288 85 8;
#X text 325 85 9;
#X text 363 85 10;
#X text 407 85 11;
#X text 442 85 12;
#X text 516 85 13;
#X text 557 85 14;
#X text 10 155 15;
#X text 69 156 16;
#X text 105 156 17;
#X text 140 156 18;
#X text 170 156 19;
#X text 209 156 20;
#X text 243 156 21;
#X text 289 156 22;
#X text 323 156 23;
#X text 360 156 24;
#X text 392 156 25;
#X text 436 156 26;
#X text 472 156 27;
#X text 517 156 28;
#X text 129 215 29;
#X text 222 215 30;
#X text 295 215 31;
#X text 385 215 32;
#X text 456 215 33;
#X text 271 269 34;
#X text 313 270 35;
#X text 1 284 1;
#X text 15 284 2;
#X text 32 284 3;
#X text 48 284 4;
#X text 65 284 5;
#X text 82 284 6;
#X text 101 284 7;
#X text 119 284 8;
#X text 134 284 9;
#X text 150 283 10;
#X text 167 283 11;
#X text 183 283 12;
#X text 200 283 13;
#X text 216 283 14;
#X text 234 283 15;
#X text 252 283 16;
#X text 269 283 17;
#X text 286 283 18;
#X text 304 283 19;
#X text 321 283 20;
#X text 338 283 21;
#X text 356 283 22;
#X text 372 283 23;
#X text 390 283 24;
#X text 406 283 25;
#X text 423 283 26;
#X text 440 283 27;
#X text 458 284 28;
#X text 475 284 29;
#X text 491 284 30;
#X text 510 284 31;
#X text 527 284 32;
#X text 543 284 33;
#X text 559 284 34;
#X text 572 275 35;
#X floatatom -432 -12 5 0 0 0 - - -;
#X obj -537 -33 route /testing;
#X connect 1 0 0 0;
#X connect 2 0 1 1;
#X connect 3 0 28 0;
#X connect 4 0 48 0;
#X connect 5 0 78 0;
#X connect 5 0 57 0;
#X connect 5 1 79 0;
#X connect 5 1 83 0;
#X connect 5 2 80 0;
#X connect 5 2 84 0;
#X connect 5 3 81 0;
#X connect 5 3 85 0;
#X connect 5 4 82 0;
#X connect 5 4 86 0;
#X connect 6 0 5 0;
#X connect 7 0 1 0;
#X connect 7 0 3 0;
#X connect 7 0 4 0;
#X connect 7 0 6 0;
#X connect 7 0 8 0;
#X connect 7 0 168 0;
#X connect 8 0 9 0;
#X connect 9 0 10 0;
#X connect 10 0 11 0;
#X connect 10 0 87 0;
#X connect 10 1 12 0;
#X connect 10 1 88 0;
#X connect 28 0 13 0;
#X connect 28 0 27 0;
#X connect 28 1 14 0;
#X connect 28 1 29 0;
#X connect 28 2 15 0;
#X connect 28 2 30 0;
#X connect 28 3 16 0;
#X connect 28 3 31 0;
#X connect 28 4 17 0;
#X connect 28 4 32 0;
#X connect 28 5 18 0;
#X connect 28 5 33 0;
#X connect 28 6 19 0;
#X connect 28 6 34 0;
#X connect 28 7 20 0;
#X connect 28 7 35 0;
#X connect 28 8 21 0;
#X connect 28 8 36 0;
#X connect 28 9 22 0;
#X connect 28 9 37 0;
#X connect 28 10 23 0;
#X connect 28 10 38 0;
#X connect 28 11 24 0;
#X connect 28 11 39 0;
#X connect 28 12 25 0;
#X connect 28 12 40 0;
#X connect 28 13 26 0;
#X connect 28 13 41 0;
#X connect 48 0 42 0;
#X connect 48 0 58 0;
#X connect 48 1 43 0;
#X connect 48 1 59 0;
#X connect 48 2 44 0;
#X connect 48 2 60 0;
#X connect 48 3 45 0;
#X connect 48 3 61 0;
#X connect 48 4 46 0;
#X connect 48 4 62 0;
#X connect 48 5 47 0;
#X connect 48 5 63 0;
#X connect 48 6 49 0;
#X connect 48 6 64 0;
#X connect 48 7 50 0;
#X connect 48 7 76 0;
#X connect 48 8 51 0;
#X connect 48 8 77 0;
#X connect 48 9 52 0;
#X connect 48 9 65 0;
#X connect 48 10 53 0;
#X connect 48 10 66 0;
#X connect 48 11 54 0;
#X connect 48 11 67 0;
#X connect 48 12 55 0;
#X connect 48 12 68 0;
#X connect 48 13 56 0;
#X connect 48 13 74 0;
#X connect 91 0 3 1;
#X connect 92 0 4 1;
#X connect 94 0 6 1;
#X connect 96 0 8 1;
#X connect 168 0 167 0;
#X coords 0 1 100 -1 589 300 1 0 0;
#X restore 26 -100 graph;
#X text 132 -135 Receive from remote pd patch port 1200 ("get_from_ECT_resend_to_remote_computer.pd")
;
