#N canvas 0 0 1254 650 10;
#X obj 32 -206 dumpOSC 12000;
#X floatatom 34 -46 5 0 0 0 - - -;
#X obj 32 -187 s OSC;
#X obj 21 -87 r OSC;
#X obj 21 -67 route /attention;
#X floatatom 142 -46 5 0 0 0 - - -;
#X obj 129 -87 r OSC;
#X floatatom 255 -46 5 0 0 0 - - -;
#X obj 242 -87 r OSC;
#X floatatom 337 -46 5 0 0 0 - - -;
#X obj 324 -87 r OSC;
#X obj 129 -67 route /meditation;
#X obj 242 -67 route /delta;
#X obj 324 -67 route /theta;
#X floatatom 32 43 5 0 0 0 - - -;
#X obj 19 2 r OSC;
#X floatatom 116 43 5 0 0 0 - - -;
#X obj 103 2 r OSC;
#X obj 19 22 route /lowa;
#X obj 103 22 route /higha;
#X floatatom 32 116 5 0 0 0 - - -;
#X obj 19 75 r OSC;
#X floatatom 116 116 5 0 0 0 - - -;
#X obj 103 75 r OSC;
#X obj 19 95 route /lowb;
#X obj 103 95 route /highb;
#X floatatom 30 191 5 0 0 0 - - -;
#X obj 17 150 r OSC;
#X floatatom 114 191 5 0 0 0 - - -;
#X obj 101 150 r OSC;
#X obj 17 170 route /lowg;
#X obj 101 170 route /highg;
#X floatatom 228 -137 5 0 0 0 - - -;
#X obj 215 -178 r OSC;
#X obj 215 -158 route /timestep;
#X connect 0 0 2 0;
#X connect 3 0 4 0;
#X connect 4 0 1 0;
#X connect 6 0 11 0;
#X connect 8 0 12 0;
#X connect 10 0 13 0;
#X connect 11 0 5 0;
#X connect 12 0 7 0;
#X connect 13 0 9 0;
#X connect 15 0 18 0;
#X connect 17 0 19 0;
#X connect 18 0 14 0;
#X connect 19 0 16 0;
#X connect 21 0 24 0;
#X connect 23 0 25 0;
#X connect 24 0 20 0;
#X connect 25 0 22 0;
#X connect 27 0 30 0;
#X connect 29 0 31 0;
#X connect 30 0 26 0;
#X connect 31 0 28 0;
#X connect 33 0 34 0;
#X connect 34 0 32 0;
