#N canvas 38 46 560 401 10;
#X obj 56 19 dumpOSC 9876;
#X obj 56 49 route /myoRaw;
#X obj 56 84 unpack f f f f f f f f f;
#X floatatom 65 117 5 0 0 0 - - -;
#X floatatom 97 117 5 0 0 0 - - -;
#X floatatom 130 117 5 0 0 0 - - -;
#X floatatom 162 117 5 0 0 0 - - -;
#X floatatom 195 117 5 0 0 0 - - -;
#X floatatom 227 117 5 0 0 0 - - -;
#X floatatom 259 117 5 0 0 0 - - -;
#X floatatom 291 117 5 0 0 0 - - -;
#X connect 0 0 1 0;
#X connect 1 0 2 0;
#X connect 2 0 3 0;
#X connect 2 1 4 0;
#X connect 2 2 5 0;
#X connect 2 3 6 0;
#X connect 2 4 7 0;
#X connect 2 5 8 0;
#X connect 2 6 9 0;
#X connect 2 7 10 0;
