#N canvas 0 0 893 679 10;
#X obj 52 -167 s OSC;
#X floatatom 248 -117 5 0 0 0 - - -;
#X obj 235 -158 r OSC;
#X obj 235 -138 route /timestep;
#X obj 52 -186 dumpOSC 12000;
#X floatatom 18 -5 5 0 0 0 - - -;
#X obj 5 -46 r OSC;
#X text 4 -64 ANGERS;
#X obj 5 -26 route /angersAirQuality;
#X floatatom 178 -5 5 0 0 0 - - -;
#X obj 165 -46 r OSC;
#X obj 165 -26 route /angersOzone;
#X floatatom 303 -5 5 0 0 0 - - -;
#X obj 290 -46 r OSC;
#X obj 290 -26 route /angersParticules;
#X floatatom 452 -5 5 0 0 0 - - -;
#X obj 439 -46 r OSC;
#X obj 439 -26 route /angersAzote;
#X floatatom 570 -5 5 0 0 0 - - -;
#X obj 557 -46 r OSC;
#X obj 557 -26 route /angersSouffre;
#X obj 686 -47 r OSC;
#X obj 686 -27 route /angersCouleur;
#X obj 686 -6 symbol;
#X symbolatom 731 -6 10 0 0 0 - - -;
#X floatatom 20 82 5 0 0 0 - - -;
#X obj 7 41 r OSC;
#X floatatom 180 82 5 0 0 0 - - -;
#X obj 167 41 r OSC;
#X floatatom 305 82 5 0 0 0 - - -;
#X obj 292 41 r OSC;
#X floatatom 454 82 5 0 0 0 - - -;
#X obj 441 41 r OSC;
#X floatatom 572 82 5 0 0 0 - - -;
#X obj 559 41 r OSC;
#X obj 688 40 r OSC;
#X obj 688 81 symbol;
#X symbolatom 733 81 10 0 0 0 - - -;
#X text 6 23 CHOLET;
#X obj 7 61 route /choletAirQuality;
#X obj 167 61 route /choletOzone;
#X obj 292 61 route /choletParticules;
#X obj 441 61 route /choletAzote;
#X obj 559 61 route /choletSouffre;
#X obj 688 60 route /choletCouleur;
#X floatatom 24 164 5 0 0 0 - - -;
#X obj 11 123 r OSC;
#X floatatom 184 164 5 0 0 0 - - -;
#X obj 171 123 r OSC;
#X floatatom 309 164 5 0 0 0 - - -;
#X obj 296 123 r OSC;
#X floatatom 462 164 5 0 0 0 - - -;
#X obj 449 123 r OSC;
#X floatatom 585 165 5 0 0 0 - - -;
#X obj 572 124 r OSC;
#X obj 707 123 r OSC;
#X obj 707 164 symbol;
#X symbolatom 748 164 10 0 0 0 - - -;
#X text 10 105 LA ROCHE SUR YON;
#X obj 11 143 route /larocheAirQuality;
#X obj 171 143 route /larocheOzone;
#X obj 296 143 route /larocheParticules;
#X obj 449 143 route /larocheAzote;
#X obj 572 144 route /larocheSouffre;
#X obj 707 143 route /larocheCouleur;
#X floatatom 24 244 5 0 0 0 - - -;
#X obj 11 203 r OSC;
#X floatatom 184 244 5 0 0 0 - - -;
#X obj 171 203 r OSC;
#X floatatom 309 244 5 0 0 0 - - -;
#X obj 296 203 r OSC;
#X floatatom 462 244 5 0 0 0 - - -;
#X obj 449 203 r OSC;
#X floatatom 585 245 5 0 0 0 - - -;
#X obj 572 204 r OSC;
#X obj 707 203 r OSC;
#X obj 707 244 symbol;
#X symbolatom 748 244 10 0 0 0 - - -;
#X text 10 185 LAVAL;
#X obj 11 223 route /lavalAirQuality;
#X obj 171 223 route /lavalOzone;
#X obj 296 223 route /lavalParticules;
#X obj 449 223 route /lavalAzote;
#X obj 572 224 route /lavalSouffre;
#X obj 707 223 route /lavalCouleur;
#X floatatom 23 323 5 0 0 0 - - -;
#X obj 10 282 r OSC;
#X floatatom 183 323 5 0 0 0 - - -;
#X obj 170 282 r OSC;
#X floatatom 308 323 5 0 0 0 - - -;
#X obj 295 282 r OSC;
#X floatatom 461 323 5 0 0 0 - - -;
#X obj 448 282 r OSC;
#X floatatom 584 324 5 0 0 0 - - -;
#X obj 571 283 r OSC;
#X obj 706 282 r OSC;
#X obj 706 323 symbol;
#X symbolatom 747 323 10 0 0 0 - - -;
#X floatatom 21 407 5 0 0 0 - - -;
#X obj 8 366 r OSC;
#X floatatom 181 407 5 0 0 0 - - -;
#X obj 168 366 r OSC;
#X floatatom 306 407 5 0 0 0 - - -;
#X obj 293 366 r OSC;
#X floatatom 459 407 5 0 0 0 - - -;
#X obj 446 366 r OSC;
#X floatatom 582 408 5 0 0 0 - - -;
#X obj 569 367 r OSC;
#X obj 704 366 r OSC;
#X obj 704 407 symbol;
#X symbolatom 745 407 10 0 0 0 - - -;
#X text 9 264 LE MANS;
#X obj 10 302 route /lemansAirQuality;
#X obj 170 302 route /lemansOzone;
#X obj 295 302 route /lemansParticules;
#X obj 448 302 route /lemansAzote;
#X obj 571 303 route /lemansSouffre;
#X obj 706 302 route /lemansCouleur;
#X text 7 348 SAINT-NAZAIRE;
#X obj 8 386 route /snAirQuality;
#X obj 168 386 route /snOzone;
#X obj 293 386 route /snParticules;
#X obj 446 386 route /snAzote;
#X obj 569 387 route /snSouffre;
#X obj 704 386 route /snCouleur;
#X connect 2 0 3 0;
#X connect 3 0 1 0;
#X connect 4 0 0 0;
#X connect 6 0 8 0;
#X connect 8 0 5 0;
#X connect 10 0 11 0;
#X connect 11 0 9 0;
#X connect 13 0 14 0;
#X connect 14 0 12 0;
#X connect 16 0 17 0;
#X connect 17 0 15 0;
#X connect 19 0 20 0;
#X connect 20 0 18 0;
#X connect 21 0 22 0;
#X connect 22 0 23 0;
#X connect 23 0 24 0;
#X connect 26 0 39 0;
#X connect 28 0 40 0;
#X connect 30 0 41 0;
#X connect 32 0 42 0;
#X connect 34 0 43 0;
#X connect 35 0 44 0;
#X connect 36 0 37 0;
#X connect 39 0 25 0;
#X connect 40 0 27 0;
#X connect 41 0 29 0;
#X connect 42 0 31 0;
#X connect 43 0 33 0;
#X connect 44 0 36 0;
#X connect 46 0 59 0;
#X connect 48 0 60 0;
#X connect 50 0 61 0;
#X connect 52 0 62 0;
#X connect 54 0 63 0;
#X connect 55 0 64 0;
#X connect 56 0 57 0;
#X connect 59 0 45 0;
#X connect 60 0 47 0;
#X connect 61 0 49 0;
#X connect 62 0 51 0;
#X connect 63 0 53 0;
#X connect 64 0 56 0;
#X connect 66 0 79 0;
#X connect 68 0 80 0;
#X connect 70 0 81 0;
#X connect 72 0 82 0;
#X connect 74 0 83 0;
#X connect 75 0 84 0;
#X connect 76 0 77 0;
#X connect 79 0 65 0;
#X connect 80 0 67 0;
#X connect 81 0 69 0;
#X connect 82 0 71 0;
#X connect 83 0 73 0;
#X connect 84 0 76 0;
#X connect 86 0 112 0;
#X connect 88 0 113 0;
#X connect 90 0 114 0;
#X connect 92 0 115 0;
#X connect 94 0 116 0;
#X connect 95 0 117 0;
#X connect 96 0 97 0;
#X connect 99 0 119 0;
#X connect 101 0 120 0;
#X connect 103 0 121 0;
#X connect 105 0 122 0;
#X connect 107 0 123 0;
#X connect 108 0 124 0;
#X connect 109 0 110 0;
#X connect 112 0 85 0;
#X connect 113 0 87 0;
#X connect 114 0 89 0;
#X connect 115 0 91 0;
#X connect 116 0 93 0;
#X connect 117 0 96 0;
#X connect 119 0 98 0;
#X connect 120 0 100 0;
#X connect 121 0 102 0;
#X connect 122 0 104 0;
#X connect 123 0 106 0;
#X connect 124 0 109 0;
