#N canvas 450 0 667 679 10;
#X declare -lib mrpeach;
#X obj 31 -33 loadbang;
#X text 412 37 box id;
#X text 423 70 sensor id;
#X text 326 -23 listen port 3333;
#X obj 243 180 change;
#X obj 243 201 t f b;
#X obj 243 226 osc~;
#X obj 317 247 vline~;
#X obj 244 273 *~;
#X obj 243 313 rev3~ 100 90 3000 20;
#X obj 242 339 dac~;
#X msg 317 218 1 5 \, 0 0 250;
#X text 324 179 make some noise;
#X text 396 314 make it reveberate !;
#X msg 31 -14 \; pd dsp 1 \;;
#X obj 186 -22 dumpOSC 3333;
#X obj 185 -48 import mrpeach;
#X floatatom 263 122 5 0 0 0 - - -;
#X obj 186 93 unpack s f;
#X obj 186 41 routeOSC /5491ac135086250300d84c50;
#X obj 186 68 route /5491acd55086250300d84c52;
#X connect 0 0 14 0;
#X connect 4 0 5 0;
#X connect 5 0 6 0;
#X connect 5 1 11 0;
#X connect 6 0 8 0;
#X connect 7 0 8 1;
#X connect 8 0 9 0;
#X connect 9 0 10 0;
#X connect 9 1 10 1;
#X connect 11 0 7 0;
#X connect 15 0 19 0;
#X connect 18 1 4 0;
#X connect 18 1 17 0;
#X connect 19 0 20 0;
#X connect 20 0 18 0;
