#N canvas 0 0 667 679 10;
#X obj 52 -167 s OSC;
#X floatatom 393 -91 5 0 0 0 - - -;
#X obj 380 -132 r OSC;
#X obj 380 -112 route /timestep;
#X obj 52 -186 dumpOSC 9876;
#X floatatom 64 -14 7 0 0 0 - - -;
#X obj 51 -55 r OSC;
#X obj 51 -35 route /abricots;
#X floatatom 61 67 7 0 0 0 - - -;
#X obj 48 26 r OSC;
#X obj 48 46 route /cerises;
#X floatatom 60 142 7 0 0 0 - - -;
#X obj 47 101 r OSC;
#X obj 47 121 route /fraises;
#X floatatom 59 208 7 0 0 0 - - -;
#X obj 46 167 r OSC;
#X obj 46 187 route /kiwis;
#X floatatom 56 274 7 0 0 0 - - -;
#X obj 43 233 r OSC;
#X obj 43 253 route /melons;
#X floatatom 57 341 7 0 0 0 - - -;
#X obj 44 300 r OSC;
#X obj 44 320 route /nectarines;
#X floatatom 53 408 7 0 0 0 - - -;
#X obj 40 367 r OSC;
#X obj 40 387 route /peches;
#X floatatom 263 -16 7 0 0 0 - - -;
#X obj 250 -57 r OSC;
#X obj 250 -37 route /pommes;
#X floatatom 259 66 7 0 0 0 - - -;
#X obj 246 25 r OSC;
#X obj 246 45 route /prunes;
#X floatatom 257 144 7 0 0 0 - - -;
#X obj 244 103 r OSC;
#X obj 244 123 route /raisin;
#X connect 2 0 3 0;
#X connect 3 0 1 0;
#X connect 4 0 0 0;
#X connect 6 0 7 0;
#X connect 7 0 5 0;
#X connect 9 0 10 0;
#X connect 10 0 8 0;
#X connect 12 0 13 0;
#X connect 13 0 11 0;
#X connect 15 0 16 0;
#X connect 16 0 14 0;
#X connect 18 0 19 0;
#X connect 19 0 17 0;
#X connect 21 0 22 0;
#X connect 22 0 20 0;
#X connect 24 0 25 0;
#X connect 25 0 23 0;
#X connect 27 0 28 0;
#X connect 28 0 26 0;
#X connect 30 0 31 0;
#X connect 31 0 29 0;
#X connect 33 0 34 0;
#X connect 34 0 32 0;
