#N canvas 0 0 377 679 10;
#X obj 52 -167 s OSC;
#X floatatom 248 -117 5 0 0 0 - - -;
#X obj 235 -158 r OSC;
#X obj 235 -138 route /timestep;
#X obj 52 -186 dumpOSC 12000;
#X floatatom 45 -18 5 0 0 0 - - -;
#X obj 32 -59 r OSC;
#X obj 32 -39 route /fruits;
#X floatatom 42 51 5 0 0 0 - - -;
#X obj 29 10 r OSC;
#X obj 29 30 route /legumes;
#X floatatom 42 119 5 0 0 0 - - -;
#X obj 29 78 r OSC;
#X obj 29 98 route /maree;
#X floatatom 39 186 5 0 0 0 - - -;
#X obj 26 145 r OSC;
#X obj 26 165 route /lait;
#X floatatom 42 253 5 0 0 0 - - -;
#X obj 29 212 r OSC;
#X obj 29 232 route /viandes;
#X connect 2 0 3 0;
#X connect 3 0 1 0;
#X connect 4 0 0 0;
#X connect 6 0 7 0;
#X connect 7 0 5 0;
#X connect 9 0 10 0;
#X connect 10 0 8 0;
#X connect 12 0 13 0;
#X connect 13 0 11 0;
#X connect 15 0 16 0;
#X connect 16 0 14 0;
#X connect 18 0 19 0;
#X connect 19 0 17 0;
