#N canvas 103 0 667 679 10;
#X obj 42 -177 s OSC;
#X floatatom 238 -127 5 0 0 0 - - -;
#X obj 225 -168 r OSC;
#X obj 225 -148 route /timestep;
#X floatatom 54 -50 5 0 0 0 - - -;
#X obj 41 -91 r OSC;
#X obj 41 -71 route /maxTemp;
#X floatatom 153 -51 5 0 0 0 - - -;
#X obj 140 -92 r OSC;
#X obj 140 -72 route /minTemp;
#X floatatom 249 -53 5 0 0 0 - - -;
#X obj 236 -94 r OSC;
#X obj 236 -74 route /meanTemp;
#X floatatom 57 43 5 0 0 0 - - -;
#X obj 44 2 r OSC;
#X floatatom 156 42 5 0 0 0 - - -;
#X obj 143 1 r OSC;
#X floatatom 268 41 5 0 0 0 - - -;
#X obj 255 0 r OSC;
#X obj 44 22 route /dew;
#X obj 143 21 route /humidity;
#X obj 255 21 route /pressure;
#X floatatom 58 119 5 0 0 0 - - -;
#X obj 45 78 r OSC;
#X floatatom 177 119 5 0 0 0 - - -;
#X obj 164 78 r OSC;
#X floatatom 289 118 5 0 0 0 - - -;
#X obj 276 77 r OSC;
#X obj 45 98 route /visibility;
#X obj 164 98 route /windSpeed;
#X obj 276 98 route /windDirection;
#X floatatom 58 196 5 0 0 0 - - -;
#X obj 45 155 r OSC;
#X obj 45 176 route /cloud;
#X obj 45 228 r OSC;
#X obj 45 249 route /event;
#X symbolatom 55 293 25 0 0 0 - - -;
#X obj 45 271 symbol;
#X obj 42 -196 dumpOSC 12000;
#X connect 2 0 3 0;
#X connect 3 0 1 0;
#X connect 5 0 6 0;
#X connect 6 0 4 0;
#X connect 8 0 9 0;
#X connect 9 0 7 0;
#X connect 11 0 12 0;
#X connect 12 0 10 0;
#X connect 14 0 19 0;
#X connect 16 0 20 0;
#X connect 18 0 21 0;
#X connect 19 0 13 0;
#X connect 20 0 15 0;
#X connect 21 0 17 0;
#X connect 23 0 28 0;
#X connect 25 0 29 0;
#X connect 27 0 30 0;
#X connect 28 0 22 0;
#X connect 29 0 24 0;
#X connect 30 0 26 0;
#X connect 32 0 33 0;
#X connect 33 0 31 0;
#X connect 34 0 35 0;
#X connect 35 0 37 0;
#X connect 37 0 36 0;
#X connect 38 0 0 0;
